<?xml version="1.0" standalone="no"?>
<!DOCTYPE svg PUBLIC "-//W3C//DTD SVG 20010904//EN"
 "http://www.w3.org/TR/2001/REC-SVG-20010904/DTD/svg10.dtd">
<svg version="1.0" xmlns="http://www.w3.org/2000/svg"
 width="980.000000pt" height="980.000000pt" viewBox="0 0 980.000000 980.000000"
 preserveAspectRatio="xMidYMid meet">
<metadata>
Created by potrace 1.14, written by Peter Selinger 2001-2017
</metadata>
<g transform="translate(0.000000,980.000000) scale(0.100000,-0.100000)"
fill="#000000" stroke="none">
<path d="M4535 8987 c-13 -20 -15 -94 -15 -528 0 -277 0 -545 0 -595 l0 -91
-55 -7 c-69 -8 -351 -79 -425 -107 -30 -12 -59 -22 -65 -24 -5 -1 -19 -6 -30
-10 -11 -5 -41 -16 -67 -26 -58 -22 -277 -129 -338 -165 -98 -57 -289 -185
-326 -219 -6 -5 -39 -32 -74 -60 -76 -61 -266 -247 -341 -335 -52 -60 -187
-239 -216 -285 -118 -188 -226 -396 -272 -525 -7 -19 -17 -44 -22 -55 -24 -56
-99 -314 -115 -400 -2 -11 -6 -31 -9 -45 -2 -14 -7 -41 -10 -60 -3 -19 -7 -46
-10 -60 -3 -14 -6 -41 -7 -60 l-2 -35 -118 0 c-64 1 -120 4 -124 7 -7 8 68
117 116 170 17 18 30 35 30 38 0 4 18 31 40 60 40 53 50 92 29 106 -6 4 -114
7 -240 7 l-229 1 -30 -29 c-16 -16 -42 -47 -57 -69 -71 -105 -214 -284 -231
-289 -45 -11 -71 4 -116 72 -25 36 -64 89 -88 118 -24 28 -65 83 -92 122 -48
70 -50 71 -95 72 -236 5 -419 3 -433 -4 -35 -15 -19 -53 73 -173 83 -108 141
-191 143 -204 1 -3 -49 -5 -111 -5 -89 0 -116 -3 -128 -16 -14 -14 -16 -61
-16 -385 0 -445 -16 -404 163 -404 l121 0 -40 -43 c-21 -23 -59 -71 -83 -107
-24 -36 -61 -85 -83 -110 -53 -61 -75 -106 -58 -123 13 -13 430 -25 475 -13
14 3 73 72 159 185 76 99 140 187 143 196 4 10 19 15 45 15 32 0 41 -5 54 -29
8 -16 32 -49 52 -73 21 -24 69 -87 107 -141 38 -54 84 -110 101 -126 l33 -29
225 -1 c295 -1 298 2 178 153 -28 34 -80 103 -116 152 l-66 89 142 3 c78 1
143 1 145 -1 2 -2 6 -21 9 -43 4 -21 10 -55 15 -74 5 -19 11 -46 14 -60 13
-71 93 -324 125 -395 5 -11 20 -45 32 -75 41 -96 121 -249 197 -373 150 -243
385 -508 624 -699 188 -151 449 -309 648 -393 36 -15 79 -33 95 -41 42 -18
196 -68 288 -94 88 -24 80 -22 202 -45 50 -9 96 -19 103 -21 12 -3 14 -92 12
-669 0 -176 2 -214 15 -232 l16 -23 369 0 c365 0 369 0 381 21 7 15 11 152 11
456 -1 327 2 435 11 437 7 2 66 13 132 25 162 29 162 29 225 47 88 25 292 93
328 109 17 8 49 22 70 31 56 24 190 90 252 124 260 142 569 393 757 616 23 27
51 60 63 74 12 14 43 54 68 90 26 36 52 70 58 77 11 12 98 148 124 195 153
277 251 524 306 773 13 61 26 120 29 132 5 22 8 22 160 21 175 0 169 4 97 -78
-21 -25 -52 -64 -68 -86 -16 -23 -51 -72 -77 -108 -27 -37 -47 -74 -45 -83 5
-26 40 -30 267 -32 l212 -2 32 34 c36 38 80 94 194 247 75 100 80 105 118 108
39 2 41 1 102 -80 34 -46 76 -104 95 -129 80 -111 130 -167 156 -172 51 -10
434 -7 453 4 30 15 23 35 -39 117 -33 42 -64 87 -70 99 -7 12 -30 44 -52 70
-47 56 -53 64 -63 80 -6 10 32 12 165 12 160 0 174 2 189 20 14 18 16 64 15
400 -1 297 -4 383 -14 393 -9 9 -59 14 -177 16 -91 2 -165 5 -165 8 0 9 35 58
63 89 25 27 121 161 156 219 24 39 9 56 -51 57 -67 1 -386 1 -415 0 -16 -1
-53 -44 -142 -163 -157 -211 -155 -208 -213 -208 -42 0 -50 4 -70 33 -13 17
-75 101 -138 185 -114 151 -115 152 -155 153 -157 4 -435 0 -444 -5 -21 -13
-11 -47 32 -100 46 -60 127 -167 169 -224 l26 -37 -135 -3 c-75 -1 -137 -1
-139 0 -1 2 -5 23 -9 48 -19 140 -42 251 -82 390 -33 118 -83 263 -94 275 -5
5 -9 15 -9 23 0 18 -101 228 -158 327 -76 133 -214 332 -284 410 -106 119
-145 160 -218 231 -276 269 -670 515 -990 620 -25 8 -54 19 -65 23 -80 34
-362 102 -500 119 l-50 7 -1 598 c-1 460 -4 600 -14 612 -11 13 -65 15 -376
15 l-364 0 -15 -23z m873 -1742 c814 -164 1487 -767 1748 -1567 23 -72 27
-102 30 -225 l2 -143 -253 0 -253 0 -185 186 -185 185 -161 2 c-108 0 -165 -3
-172 -10 -8 -8 -12 -70 -12 -186 l0 -175 -93 -4 c-59 -2 -98 -8 -106 -16 -8
-8 -14 -44 -15 -100 -1 -48 -2 -94 -2 -103 -1 -14 -43 -16 -417 -16 -294 0
-418 -3 -426 -11 -14 -14 -14 -330 0 -344 13 -13 48 -16 257 -17 l191 -1 0
-118 0 -119 -393 0 -392 0 -1 424 0 423 607 2 608 3 3 174 c1 105 -1 178 -7
184 -7 7 -257 10 -693 10 -675 0 -684 -1 -739 -22 -111 -42 -191 -143 -207
-257 -4 -33 -7 -279 -6 -549 1 -470 2 -492 22 -548 34 -94 101 -157 207 -194
46 -17 107 -18 727 -18 445 0 680 3 687 10 6 6 11 85 12 193 l1 183 87 -3 86
-3 2 -179 c1 -119 5 -182 12 -190 18 -17 381 -20 404 -3 16 11 18 33 18 194
l1 182 248 -1 247 0 123 -123 123 -124 -18 -48 c-246 -668 -786 -1190 -1453
-1409 -74 -24 -142 -43 -175 -50 -10 -2 -26 -5 -35 -8 -9 -3 -33 -8 -52 -11
-19 -3 -49 -8 -67 -11 l-31 -6 0 633 c0 613 -1 634 -20 649 -16 14 -65 15
-368 14 -192 -1 -356 -2 -365 -3 -37 -3 -39 -36 -39 -663 0 -336 -2 -613 -5
-616 -11 -12 -336 80 -420 118 -11 5 -51 23 -89 40 -62 27 -239 120 -290 153
-56 35 -208 147 -261 191 -88 75 -249 239 -302 310 -26 33 -50 63 -53 66 -8 7
-120 170 -120 175 0 2 -11 20 -24 39 -37 56 -141 273 -180 378 -33 90 -36 105
-36 208 l0 110 638 0 c561 0 640 2 660 16 l22 15 0 370 c0 333 -2 372 -17 387
-15 16 -71 17 -660 17 -354 0 -643 3 -643 7 0 5 273 9 608 10 l607 3 3 174 c1
103 -1 178 -7 184 -6 6 -235 10 -605 10 -421 0 -596 4 -596 11 0 30 59 174
129 316 59 120 54 111 143 247 239 362 606 670 998 838 47 20 94 40 105 45 80
34 382 117 391 107 3 -2 5 -313 5 -690 -1 -645 1 -687 17 -708 18 -22 19 -22
376 -22 314 0 359 1 373 15 14 15 16 89 16 717 0 596 2 701 14 701 8 0 49 -7
91 -15z"/>
</g>
</svg>
